{"accessors" : [{"bufferView" : 0, "byteOffset" : 0, "componentType" : 5123, "count" : 59997, "type" : "SCALAR", "max" : [23525], "min" : [0]}, {"bufferView" : 1, "byteOffset" : 0, "componentType" : 5126, "count" : 23526, "type" : "VEC3", "max" : [0.43709999322891235, 1.9011000394821167, -0.05429999902844429], "min" : [-0.6093000173568726, 0, -0.7760000228881836], "name" : "POSITION"}, {"bufferView" : 1, "byteOffset" : 12, "componentType" : 5126, "count" : 23526, "type" : "VEC3", "max" : [0.9999901652336121, 0.9999962449073792, 1.0000007152557373], "min" : [-0.9999992847442627, -0.9999642372131348, -0.9999645352363586], "name" : "NORMAL"}, {"bufferView" : 1, "byteOffset" : 24, "componentType" : 5126, "count" : 23526, "type" : "VEC2", "max" : [0.9987000226974487, 0.9987000226974487], "min" : [0.0013000000035390258, 0.0012999773025512695], "name" : "TEXCOORD_0"}], "asset" : {"generator" : "Aspose.3D 25.3.0", "version" : "2.0"}, "buffers" : [{"uri" : "data:application/octet-stream;base64,", "byteLength" : 872836}], "bufferViews" : [{"buffer" : 0, "byteOffset" : 0, "byteLength" : 119996, "target" : 34963}, {"buffer" : 0, "byteOffset" : 120000, "byteLength" : 752832, "byteStride" : 32, "target" : 34962}], "meshes" : [{"primitives" : [{"attributes" : {"POSITION" : 1, "NORMAL" : 2, "TEXCOORD_0" : 3}, "indices" : 0, "mode" : 4}], "name" : ""}], "nodes" : [{"mesh" : 0, "name" : "model"}], "scene" : 0, "scenes" : [{"nodes" : [0]}]}